<svg width="290" height="365" viewBox="0 0 290 365" fill="none" xmlns="http://www.w3.org/2000/svg">
<mask id="mask0_1_402" style="mask-type:alpha" maskUnits="userSpaceOnUse" x="0" y="0" width="290" height="365">
<rect x="285.575" y="0.992601" width="360" height="285" transform="rotate(89.3898 285.575 0.992601)" fill="url(#paint0_linear_1_402)" stroke="#6246E5"/>
</mask>
<g mask="url(#mask0_1_402)">
<path d="M82.4563 464.602C61.9663 464.82 43.1799 451.057 29.3953 428.441C15.617 405.835 6.89365 374.463 6.52327 339.686C6.15289 304.908 14.2062 273.357 27.4999 250.463C40.7997 227.559 59.2888 213.399 79.7788 213.181C100.269 212.962 119.055 226.725 132.84 249.342C146.618 271.947 155.341 303.319 155.712 338.097C156.082 372.875 148.029 404.425 134.735 427.319C121.435 450.224 102.946 464.384 82.4563 464.602Z" stroke="#E5E5E5"/>
<path d="M90.4142 469.499C67.4685 469.743 46.4411 454.331 31.0184 429.027C15.6021 403.734 5.84354 368.637 5.42921 329.731C5.01488 290.826 14.0237 255.529 28.8979 229.913C43.7782 204.287 64.4726 188.43 87.4183 188.186C110.364 187.941 131.391 203.353 146.814 228.657C162.23 253.951 171.989 289.048 172.403 327.953C172.818 366.858 163.809 402.156 148.935 427.772C134.054 453.398 113.36 469.255 90.4142 469.499Z" stroke="#E5E5E5"/>
<path d="M96.8892 474.414C71.7607 474.681 48.7413 457.803 31.8625 430.11C14.9901 402.428 4.31147 364.019 3.85807 321.445C3.40467 278.871 13.2629 240.243 29.5419 212.208C45.8271 184.162 68.4818 166.797 93.6103 166.53C118.739 166.262 141.758 183.14 158.637 210.833C175.509 238.515 186.188 276.925 186.641 319.498C187.095 362.072 177.237 400.7 160.958 428.736C144.672 456.781 122.018 474.146 96.8892 474.414Z" stroke="#E5E5E5"/>
<path d="M106.312 477.634C79.2736 477.922 54.5112 459.761 36.3583 429.978C18.2119 400.206 6.72809 358.898 6.2405 313.115C5.75291 267.331 16.3543 225.788 33.8626 195.636C51.3771 165.473 75.7471 146.789 102.785 146.501C129.824 146.213 154.586 164.374 172.739 194.157C190.886 223.929 202.369 265.237 202.857 311.021C203.345 356.804 192.743 398.347 175.235 428.499C157.72 458.662 133.35 477.346 106.312 477.634Z" stroke="#E5E5E5"/>
<path d="M115.487 480.858C86.607 481.166 60.1638 461.768 40.7824 429.97C21.4074 398.181 9.14729 354.079 8.62673 305.2C8.10618 256.321 19.4243 211.968 38.1179 179.775C56.8177 147.57 82.8417 127.614 111.722 127.306C140.602 126.999 167.045 146.396 186.427 178.195C205.802 209.983 218.062 254.085 218.582 302.964C219.103 351.843 207.785 396.197 189.091 428.39C170.391 460.594 144.367 480.551 115.487 480.858Z" stroke="#E5E5E5"/>
<path d="M125.906 484.9C94.1609 485.238 65.1033 463.916 43.8108 428.982C22.5247 394.058 9.05692 345.61 8.48509 291.915C7.91326 238.221 20.3462 189.497 40.8837 154.127C61.4273 118.748 90.0243 96.8118 121.769 96.4738C153.515 96.1357 182.572 117.458 203.865 152.392C225.151 187.315 238.619 235.764 239.19 289.458C239.762 343.153 227.329 391.877 206.792 427.246C186.248 462.626 157.651 484.562 125.906 484.9Z" stroke="#E5E5E5"/>
</g>
<defs>
<linearGradient id="paint0_linear_1_402" x1="542.105" y1="8.51136" x2="439.534" y2="334.739" gradientUnits="userSpaceOnUse">
<stop stop-color="#747DEF"/>
<stop offset="1" stop-color="#5E3BE1"/>
</linearGradient>
</defs>
</svg>
