<svg width="145" height="53" viewBox="0 0 145 53" fill="none" xmlns="http://www.w3.org/2000/svg">
<path d="M5.44908 0.79612C4.65185 0.902256 3.52983 1.18883 2.64402 1.50724C-0.101975 2.49431 0.13424 0.488323 0.13424 22.5329C0.13424 44.5881 -0.072448 42.6883 2.58497 43.6435C5.27192 44.6094 2.55544 44.5351 41.59 44.6306L75.8412 44.7155L77.7013 47.3052C78.7053 48.7275 79.8568 50.1072 80.2111 50.3726C81.156 51.0413 83.0457 51.763 84.9059 52.1663C87.9176 52.8137 88.5672 52.835 103.774 52.835C118.419 52.835 119.334 52.8031 122.139 52.2937C123.734 51.9965 126.096 51.2005 127.011 50.6273C128.576 49.6721 128.871 49.0671 128.871 46.7852V44.6837L132.946 44.62C138.261 44.5245 139.796 44.3546 141.775 43.6435C144.432 42.6883 144.225 44.5775 144.225 22.586C144.225 0.59446 144.432 2.4837 141.775 1.51785C138.999 0.520164 146.056 0.615688 72.0617 0.626301C13.3918 0.626301 6.63015 0.64753 5.44908 0.79612ZM138.497 2.16528C138.94 2.28204 139.59 2.51554 139.914 2.67474C140.505 2.9507 140.535 3.12051 140.623 6.46382L140.712 9.95572H72.1798H3.67747V6.62303C3.67747 3.16297 3.76605 2.89763 4.94712 2.43063C6.39394 1.8681 2.40781 1.89994 72.5341 1.92117L137.7 1.9424L138.497 2.16528ZM140.682 26.5555C140.682 37.1373 140.594 41.9772 140.357 42.1894C139.914 42.6034 138.674 43.0492 137.611 43.1659C137.109 43.219 134.924 43.3039 132.799 43.3357L128.871 43.41V41.9984C128.871 40.3321 128.517 39.9393 126.509 39.3344C124.826 38.8143 123.025 38.6657 120.781 38.878L119.157 39.0372L117.74 38.5277C115.968 37.8909 114.138 37.668 112.071 37.8378C111.332 37.8909 110.506 37.9758 110.269 38.0183C109.974 38.0607 109.679 37.9758 109.325 37.7742C109.059 37.6043 108.291 37.3284 107.583 37.1586C106.549 36.9145 106.018 36.8614 104.541 36.8614C103.537 36.8614 102.445 36.9038 102.061 36.9463L101.411 37.0312V32.4461C101.411 28.0096 101.382 27.8398 100.791 27.394C99.4922 26.4175 96.1852 25.8444 93.262 26.0779C91.1361 26.2477 89.5416 26.6935 88.5968 27.3728L87.8291 27.9353V34.537V41.1387L86.0279 40.47C83.4 39.483 80.4473 38.9735 76.166 38.7825C74.5124 38.7082 73.0656 38.9204 72.2684 39.345C71.4121 39.7908 71.4121 40.1516 72.2094 40.8097C72.8885 41.3828 74.8372 43.2614 74.8372 43.357C74.8372 43.4737 7.51596 43.2827 6.65968 43.1659C5.59671 43.0173 4.56327 42.6564 4.09084 42.2531C3.73652 41.9666 3.67747 39.3238 3.67747 26.5661V11.2294H72.1798H140.682V26.5555ZM95.9194 27.4046C97.9568 27.7124 97.8682 27.4895 97.8682 33.2103C97.8682 39.8544 98.1044 42.8263 98.6654 43.0279C99.315 43.2614 100.703 43.2084 101.234 42.943C101.618 42.752 101.707 42.338 101.707 40.6505C101.707 38.6126 101.707 38.602 102.445 38.3473C103.213 38.0607 104.571 37.997 105.575 38.1987C106.756 38.4216 106.962 38.8355 106.785 40.7991C106.667 42.4123 106.697 42.6671 107.14 42.9112C107.553 43.1447 107.848 43.1871 108.734 43.1553C110.329 43.1128 110.565 42.8687 110.565 41.0856V39.5891L111.48 39.3131C112.691 38.9417 113.842 38.9523 115.053 39.345L116.027 39.6528L116.175 41.6481C116.323 43.6329 116.323 43.6541 117.031 43.7709C117.917 43.9301 118.862 43.8133 119.334 43.4843C119.57 43.3251 119.718 42.752 119.718 41.9559C119.718 40.5231 119.954 40.3002 121.608 40.0986C122.818 39.9606 123.822 40.0773 124.708 40.4806C125.358 40.7778 125.358 40.7991 125.269 44.9702L125.181 49.1732L124.383 49.7039C123.379 50.3938 121.401 51.0519 119.541 51.3066C118.183 51.4976 117.149 51.5083 103.626 51.5083C89.4826 51.5083 89.1283 51.5083 87.7995 51.2854C85.9689 50.9776 84.1677 50.3726 83.4 49.8207C83.0752 49.5659 81.7465 47.8784 80.4473 46.0634C78.3509 43.1235 76.727 41.2236 75.5459 40.4063C75.3392 40.2471 75.2211 40.0986 75.3097 40.0773C75.6049 39.9712 78.469 40.2047 80.093 40.47C82.2485 40.8203 83.902 41.404 86.087 42.5609L87.8291 43.4843V44.7686C87.8291 45.9042 87.8881 46.0634 88.4196 46.2545C89.1578 46.5198 89.6302 46.5198 90.6046 46.2439L91.3723 46.0316V37.1161C91.3723 27.5001 91.3428 27.7761 92.9077 27.5001C94.4431 27.2242 94.6793 27.2242 95.9194 27.4046Z" fill="#FA7436"/>
</svg>
